<?xml version="1.0" encoding="utf-8"?>
<!-- Generator: Adobe Illustrator 18.1.0, SVG Export Plug-In . SVG Version: 6.00 Build 0)  -->
<svg version="1.1" id="Capa_1" xmlns="http://www.w3.org/2000/svg" xmlns:xlink="http://www.w3.org/1999/xlink" x="0px" y="0px"
	 viewBox="-1450 1452.8 97.2 97.2" enable-background="new -1450 1452.8 97.2 97.2" xml:space="preserve">
<g>
	<g>
		<path fill="#4A83CA" d="M-1401.4,1452.8c-26.8,0-48.6,21.8-48.6,48.6c0,26.8,21.8,48.6,48.6,48.6s48.6-21.8,48.6-48.6
			C-1352.8,1474.6-1374.6,1452.8-1401.4,1452.8z M-1401.4,1539.7c-21.1,0-38.2-17.2-38.2-38.2s17.2-38.2,38.2-38.2
			c21.1,0,38.2,17.2,38.2,38.2S-1380.3,1539.7-1401.4,1539.7z"/>
		<path fill="#4A83CA" d="M-1376.1,1499.9h-21.8v-26.2c0-2.2-1.8-4-4-4s-4,1.8-4,4v30.2c0,2.2,1.8,4,4,4h25.8c2.2,0,4-1.8,4-4
			S-1373.9,1499.9-1376.1,1499.9z"/>
	</g>
</g>
</svg>
