<?xml version="1.0" encoding="utf-8"?>
<!-- Generator: Adobe Illustrator 18.1.0, SVG Export Plug-In . SVG Version: 6.00 Build 0)  -->
<svg version="1.1" id="Capa_1" xmlns="http://www.w3.org/2000/svg" xmlns:xlink="http://www.w3.org/1999/xlink" x="0px" y="0px"
	 viewBox="0 0 3000 3000" enable-background="new 0 0 3000 3000" xml:space="preserve">
<g>
	<g>
		<g>
			<path fill="#4A83CA" d="M1215.9,1666.6c0-30-24.4-54.4-54.4-54.4c-13.1,0-25.5,4.6-35.2,12.9c-5.6-1.9-11.6-2.9-17.6-2.9
				c-30,0-54.4,24.4-54.4,54.4c0,23.1,14.9,43.5,36,51.2c6.4,23.1,27.7,39.9,52.4,39.9c30,0,54.4-24.4,54.4-54.4
				c0-1.9-0.1-3.7-0.3-5.5C1208.9,1697.7,1215.9,1682.6,1215.9,1666.6z M1174.2,1689.2l-10,5.6l3.4,11c0.8,2.5,1.1,5,1.1,7.6
				c0,14.3-11.6,25.9-25.9,25.9c-13.5,0-24.8-10.5-25.8-24l-0.8-11.4l-11.3-1.7c-12.6-1.9-22-12.8-22-25.6
				c0-14.3,11.6-25.9,25.9-25.9c4.8,0,9.4,1.3,13.4,3.8l11,6.7l7.8-10.2c4.9-6.5,12.5-10.2,20.6-10.2c14.3,0,25.9,11.6,25.9,25.9
				C1187.4,1676,1182.4,1684.6,1174.2,1689.2z"/>
		</g>
	</g>
	<g>
		<g>
			<path fill="#4A83CA" d="M1367.9,1484.3c0-27.6-22.4-50-50-50c-11.8,0-22.9,4-31.8,11.3c-4.9-1.6-10.1-2.4-15.3-2.4
				c-27.6,0-50,22.4-50,50c0,1.7,0.1,3.4,0.3,5.1c-7.1,8.8-11,19.8-11,31.3c0,27.6,22.4,50,50,50c8.6,0,17.1-2.2,24.5-6.4
				c5.3,1.9,10.9,2.8,16.6,2.8c27.6,0,50-22.4,50-50c0-1.4-0.1-2.9-0.2-4.3C1361.7,1512.4,1367.9,1498.8,1367.9,1484.3z
				 M1328.4,1503.1l-10,5.6l3.4,11c0.6,2,1,4.2,1,6.3c0,11.9-9.7,21.5-21.5,21.5c-3.8,0-7.6-1-10.8-2.9l-8.7-5.1l-7.7,6.5
				c-3.9,3.3-8.7,5.1-13.9,5.1c-11.9,0-21.5-9.7-21.5-21.5c0-6.1,2.6-12,7.3-16.1l6.7-5.9l-2.4-8.6c-0.5-1.9-0.8-3.8-0.8-5.8
				c0-11.9,9.7-21.5,21.5-21.5c4,0,7.8,1.1,11.2,3.1l11,6.7l7.8-10.2c4.1-5.4,10.4-8.5,17.2-8.5c11.9,0,21.5,9.7,21.5,21.5
				C1339.4,1492.1,1335.2,1499.3,1328.4,1503.1z"/>
		</g>
	</g>
	<g>
		<g>
			<path fill="#4A83CA" d="M1945.6,1589.8c0-27.6-22.4-50-50-50c-11.8,0-22.9,4-31.8,11.4c-4.9-1.6-10.1-2.4-15.3-2.4
				c-27.6,0-50,22.4-50,50c0,1.7,0.1,3.4,0.3,5.1c-7.1,8.8-11,19.8-11,31.3c0,27.6,22.4,50,50,50c8.6,0,17.1-2.2,24.5-6.4
				c5.3,1.9,10.9,2.8,16.6,2.8c27.6,0,50-22.4,50-50c0-1.4-0.1-2.9-0.2-4.3C1939.3,1617.9,1945.6,1604.2,1945.6,1589.8z
				 M1906.1,1608.6l-10,5.6l3.4,11c0.6,2,0.9,4.2,0.9,6.3c0,11.9-9.7,21.5-21.5,21.5c-3.8,0-7.6-1-10.8-2.9l-8.7-5.1l-7.7,6.5
				c-3.9,3.3-8.7,5.1-13.9,5.1c-11.9,0-21.5-9.7-21.5-21.5c0-6.1,2.6-12,7.3-16.1l6.7-5.9l-2.4-8.6c-0.5-1.9-0.8-3.8-0.8-5.8
				c0-11.9,9.7-21.5,21.5-21.5c4,0,7.8,1.1,11.2,3.1l11,6.7l7.8-10.2c4.1-5.4,10.4-8.5,17.2-8.5c11.9,0,21.5,9.7,21.5,21.5
				C1917.1,1597.6,1912.9,1604.7,1906.1,1608.6z"/>
		</g>
	</g>
	<g>
		<g>
			<path fill="#4A83CA" d="M1797.4,1805.3c0-7.7-1.8-15.2-5.1-22c3.4-6.8,5.1-14.3,5.1-22.1c0-24.2-17.3-44.4-40.2-49
				c2.6-6.1,4-12.8,4-19.7c0-27.6-22.4-50-50-50c-7.5,0-14.9,1.7-21.5,4.9c-12.1-11.6-28.2-18.2-45.3-18.2c-4.4,0-8.7,0.4-13,1.3
				c-3.9-3.9-8.3-7-13.2-9.4c9.9-10,15.7-23.7,15.7-38.2c0-30-24.4-54.4-54.4-54.4c-13.1,0-25.5,4.6-35.2,12.9
				c-5.6-1.9-11.6-2.9-17.6-2.9c-10.7,0-20.9,3.1-29.6,8.7c-18.1-17.1-46.4-20-67.9-5.4c-18.4,12.5-26.9,34.9-22.7,55.9
				c-21.3,3.9-37.8,21.4-40.5,43.1c-6.1-1.8-13.1-2.7-20.8-2c-11.8,1-22.2,4.9-30.4,11.4c-5-1.6-10.2-2.5-15.5-2.5
				c-27.6,0-50,22.4-50,50c0,1.7,0.1,3.4,0.3,5.1c-7.1,8.8-11,19.8-11,31.3c0,8.3,2,16.1,5.6,23.1c-28.5,1.6-51.2,25.3-51.2,54.3
				c0,13.6,5.1,26.5,13.9,36.3c-13.9,17.1-20.7,39-18.9,61.1l77.5,469.1h446l77.4-467.9l0.1-1.2c1.4-16.8-2.3-33.5-10.2-48
				c1.2-4.5,1.8-9.1,1.8-13.6c0-1.4-0.1-2.9-0.2-4.3C1791.1,1833.3,1797.4,1819.7,1797.4,1805.3z M1289.8,2349.2L1289.8,2349.2
				l-73.3-443.5c-1.1-15.9,4.2-31.1,15-42.9c11-11.9,25.9-18.4,42.1-18.4h0.6c30.9,0,56,24.2,57.2,55v0.3l0.1,1.7
				c0,1.2,0,2.3,0.1,3.5l35.3,444.3H1289.8L1289.8,2349.2z M1395.4,2349.2l-35.4-448.8c0.3-14.4,5.9-28,16-38.5
				c10.9-11.3,25.5-17.5,41.2-17.5c31.5,0,57.2,25.7,57.2,57.2v447.6H1395.4z M1502.9,2349.2L1502.9,2349.2v-447.6
				c0-31.5,25.7-57.2,57.2-57.2c15.7,0,30.3,6.2,41.2,17.5c10.1,10.5,15.7,24.1,16,38.5l-35.4,448.8H1502.9z M1760.8,1905.7
				l-73.3,443.5h-77l35.2-443.7v-0.6c0-1.2,0.1-2.3,0.1-3.5l0.1-1.4v-0.6c1.2-30.8,26.3-55,57.2-55h0.6c16.2,0,31.1,6.5,42.1,18.4
				C1756.6,1874.6,1761.9,1889.8,1760.8,1905.7z M1757.8,1824l-8.8,4.9c-13.5-8.4-29.2-13-45.4-13h-0.6c-29.9,0-56.2,15.1-71.6,38.4
				c-2.8-4.3-6.1-8.3-9.7-12.1c-16.3-16.9-38.2-26.3-61.8-26.3c-29.8,0-56.1,15.3-71.5,38.4c-15.4-23.1-41.7-38.4-71.5-38.4
				c-23.5,0-45.5,9.3-61.8,26.3c-3.6,3.8-6.9,7.8-9.7,12.1c-15.3-23.2-41.6-38.4-71.6-38.4h-0.6c-16,0-31.6,4.5-45.1,12.8
				c-4.3-4.7-6.8-10.9-6.8-17.5c0-14.2,11.6-25.8,25.9-25.8c4.8,0,9.4,1.3,13.4,3.8l11,6.7l7.8-10.2c1.7-2.3,3.8-4.2,6.2-5.8
				l24.3-16.5l-28-8.9c-8.9-2.9-15-11.1-15-20.5c0-6.2,2.6-12,7.3-16.1l6.7-5.9l-2.4-8.6c-0.5-1.9-0.8-3.8-0.8-5.8
				c0-11.9,9.7-21.5,21.5-21.5c4,0,7.8,1.1,11.2,3.1l11,6.7l7.8-10.3c4.7-6.2,12.6-8.1,18.4-8.6c12.6-1.1,21.9,6.4,27.4,10.9
				c1.7,1.4,3.2,2.6,4.8,3.6l11.1,6.7l7.7-10.3l7-9.2l-6.8-8.7c-3-3.8-4.6-8.4-4.6-13.3c0-11.8,9.5-21.4,21.3-21.5l8,0.5l4.6-6
				c1.3-1.7,2.8-3.2,4.4-4.5l9-7.1l-5-10.3c-5.5-11.4-1.8-25.5,8.8-32.6c11.8-8,27.9-4.9,35.9,6.8c0.5,0.7,0.9,1.5,1.4,2.4
				l10.2,19.5l13.6-17.2c5-6.3,12.4-9.9,20.3-9.9c4.8,0,9.4,1.3,13.4,3.8l11,6.7l7.8-10.2c5-6.5,12.5-10.2,20.6-10.2
				c14.3,0,25.9,11.6,25.9,25.9c0,9.3-5.1,18-13.2,22.5l-10,5.6l3.3,11c0.7,2.4,1.1,4.9,1.1,7.4c0,0.4,0,0.8,0,1.2v12.5l12.4,1.6
				c6.3,0.8,11.8,4.4,15.3,9.8l6.2,9.8l10.8-4.1c4.1-1.6,8.5-2.4,13-2.4c12.4,0,23.9,6.1,30.8,16.4l9.2,13.8l12.2-11.2
				c4-3.7,9.2-5.7,14.6-5.7c11.9,0,21.5,9.7,21.5,21.5c0,7.8-4.2,15-11,18.8l-10.1,5.7l3.5,11c0.3,1.1,0.6,2.3,0.7,3.6l2.5,21.2
				l18.6-10.3c3.1-1.7,6.7-2.7,10.4-2.7c11.9,0,21.5,9.6,21.5,21.5c0,4.9-1.6,9.5-4.6,13.3l-6.9,8.8l6.9,8.8c3,3.8,4.6,8.4,4.6,13.2
				C1768.9,1813,1764.6,1820.2,1757.8,1824z"/>
		</g>
	</g>
</g>
<g>
	<g>
		<path fill="#4A83CA" d="M1537.1,1675.6c-4.2,0-8.3,0.6-12.3,1.8c-9.9-10.7-24-17-39-17c-25.4,0-46.8,18-52,41.9
			c-28.1,1.4-50.6,24.7-50.6,53.1h28.5c0-13.6,11.1-24.7,24.7-24.7c2.2,0,4.5,0.3,6.8,1l20.5,5.8l-2.4-21.1c-0.1-1-0.2-1.9-0.2-2.8
			c0-13.6,11.1-24.7,24.7-24.7c9.2,0,17.6,5.1,21.9,13.3l7.9,15.1l13.5-10.4c1.6-1.3,4.4-2.8,8.1-2.8c7.3,0,13.3,6,13.3,13.3h28.5
			C1578.9,1694.4,1560.1,1675.6,1537.1,1675.6z"/>
	</g>
</g>
<g>
	<g>
		<path fill="#4A83CA" d="M1632.1,1727.9c-13.9,0-27.1,6-36.3,16c-5.1-1.8-10.4-2.7-15.9-2.7c-26.7,0-48.5,21.7-48.5,48.5h28.5
			c0-11,8.9-20,20-20c4.3,0,8.4,1.4,11.9,4l14,10.5l7.5-15.8c3.4-7.3,10.9-12,18.9-12c11.5,0,20.9,9.4,20.9,20.9h28.5
			C1681.5,1750,1659.3,1727.9,1632.1,1727.9z"/>
	</g>
</g>
<g>
	<g>
		
			<rect x="1253.9" y="1900.5" transform="matrix(0.9866 -0.1632 0.1632 0.9866 -302.3118 233.1943)" fill="#4A83CA" width="28.5" height="112.1"/>
	</g>
</g>
<g>
	<g>
		
			<rect x="1295.6" y="2173" transform="matrix(0.9866 -0.1631 0.1631 0.9866 -342.5892 243.2006)" fill="#4A83CA" width="28.5" height="70"/>
	</g>
</g>
<g>
	<g>
		
			<rect x="1528.5" y="2232.8" transform="matrix(7.919338e-02 -0.9969 0.9969 7.919338e-02 -815.5076 3611.2751)" fill="#4A83CA" width="37.1" height="28.5"/>
	</g>
</g>
<g>
	<g>
		
			<rect x="1507.3" y="2048" transform="matrix(7.919338e-02 -0.9969 0.9969 7.919338e-02 -617.7964 3455.7051)" fill="#4A83CA" width="108.7" height="28.5"/>
	</g>
</g>
<g>
	<g>
		
			<rect x="1540.4" y="1918.7" transform="matrix(7.919338e-02 -0.9969 0.9969 7.919338e-02 -479.3385 3346.9001)" fill="#4A83CA" width="63.2" height="28.5"/>
	</g>
</g>
<g>
	<path fill="#4A83CA" d="M748,964.3c-7.4-7.8-19.7-8.2-27.6-0.9s-8.2,19.7-0.9,27.6c7.4,7.8,19.7,8.2,27.6,0.9
		C754.9,984.5,755.3,972.1,748,964.3z"/>
	<path fill="#4A83CA" d="M1299.6,1411.2c20.9-19.6,22.3-52.2,3.7-73.6c4.8-2.3,9.3-5.3,13.3-9.1c21.3-20,22.4-53.7,2.4-75
		l-194.1-206.6c29.3,11.5,57.3,29.6,83.5,54.4c10.3,9.7,23.8,14.9,38,14.4c14.2-0.4,27.3-6.3,37.1-16.6c9.7-10.3,14.9-23.8,14.4-38
		c-0.4-14.2-6.3-27.3-16.6-37.1c-95.2-89.9-210.6-118.6-334.2-83.5l-25.6-27.3l27.9-26.2c7.5-7,7.8-18.8,0.8-26.3l-73.3-78
		l12.1-11.3c7.5-7,7.8-18.8,0.8-26.3l-45.5-48.5c-7-7.5-18.8-7.8-26.3-0.8s-7.8,18.8-0.8,26.3L850,757L612.7,979.6l-32.8-34.9
		c-7-7.5-18.8-7.8-26.3-0.8s-7.8,18.8-0.8,26.3l45.5,48.5c7,7.5,18.8,7.8,26.3,0.8l12.1-11.3l73.3,78c7,7.5,18.8,7.8,26.3,0.8
		l39.7-37.3l27.3,29c-5.7,46.1,9.6,93.2,42,127.7l212.1,225.9c20,21.3,53.7,22.4,75,2.4c4-3.8,7.4-8.1,10-12.7
		c20.2,20,52.8,20.6,73.7,1c4-3.8,7.4-8.1,10-12.7C1246,1430.2,1278.7,1430.7,1299.6,1411.2z M724.3,1047.1l-60.5-64.5L849.7,808
		l60.5,64.5L724.3,1047.1z M1251.6,1383.4l-33.3-35.5l-133.3-142c-7-7.5-18.8-7.8-26.3-0.8s-7.8,18.8-0.8,26.3l133.3,142
		c6,6.4,5.7,16.5-0.7,22.5c-6.4,6-16.5,5.7-22.5-0.7l-33.3-35.5l-123-131c-7-7.5-18.8-7.8-26.3-0.8s-7.8,18.8-0.8,26.3l123,131
		c6,6.4,5.7,16.5-0.7,22.5s-16.5,5.7-22.5-0.7l-212.1-225.9c-26.9-28.7-38.2-66.9-31-104.9c1.1-5.8-0.6-11.8-4.7-16.2l-33.5-35.6
		l91.3-85.7l33.5,35.6c4.9,5.2,12.3,7.1,19.1,5c114.3-35.8,221-11,308.8,71.8c3.1,2.9,4.9,6.9,5,11.1c0.1,4.3-1.4,8.3-4.3,11.4
		s-6.9,4.9-11.1,5c-4.3,0.1-8.3-1.4-11.4-4.3c-49-46.2-103.8-72.5-163-78c-7.7-0.7-15,3.4-18.4,10.3c-3.4,6.9-2.1,15.3,3.1,20.9
		l43.8,46.6c-47.7,32.5-113.4,26.4-154.2-16.9c-7-7.5-18.8-7.8-26.3-0.8s-7.8,18.8-0.8,26.3c54.8,58.3,144,65.2,206.9,18.8
		l166.8,177.6c6,6.4,5.7,16.5-0.7,22.5s-16.5,5.7-22.5-0.7l-144.8-154.2c-7-7.5-18.8-7.8-26.3-0.8s-7.8,18.8-0.8,26.3l144.8,154.2
		l33.3,35.5c6,6.4,5.7,16.5-0.7,22.5S1257.6,1389.8,1251.6,1383.4z"/>
</g>
<g>
	<path fill="#4A83CA" d="M2187.6,1027.2c7.8,7.4,20.2,7,27.6-0.9c7.4-7.8,7-20.2-0.9-27.6c-7.8-7.4-20.2-7-27.6,0.9
		C2179.3,1007.4,2179.7,1019.8,2187.6,1027.2z"/>
	<path fill="#4A83CA" d="M1708.8,1445.5c2.6,4.6,5.9,8.9,10,12.7c20.9,19.6,53.5,19,73.7-1c2.6,4.6,5.9,8.9,10,12.7
		c21.3,20,55,19,75-2.4l212.1-225.9c32.4-34.5,47.7-81.6,42-127.7l27.3-29l39.7,37.3c7.5,7,19.2,6.7,26.3-0.8l73.3-78l12.1,11.3
		c7.5,7,19.2,6.7,26.3-0.8l45.5-48.5c7-7.5,6.7-19.2-0.8-26.3c-7.5-7-19.2-6.7-26.3,0.8l-33,35.1l-237.1-222.7l32.8-34.9
		c7-7.5,6.7-19.2-0.8-26.3c-7.5-7-19.2-6.7-26.3,0.8l-45.5,48.5c-7,7.5-6.7,19.2,0.8,26.3L2058,818l-73.3,78
		c-7,7.5-6.7,19.2,0.8,26.3l27.9,26.2l-25.6,27.3c-123.6-35.1-238.9-6.3-334.2,83.5c-10.3,9.7-16.2,22.9-16.6,37.1s4.7,27.7,14.4,38
		c9.7,10.3,22.9,16.2,37.1,16.6s27.7-4.7,38-14.4c26.2-24.7,54.1-42.9,83.5-54.4l-194.1,206.6c-20,21.3-19,55,2.4,75
		c4,3.8,8.5,6.8,13.3,9.1c-18.7,21.4-17.2,54,3.7,73.6C1656,1466.1,1688.6,1465.5,1708.8,1445.5z M2024.4,907.9l60.5-64.5
		l185.9,174.6l-60.5,64.5L2024.4,907.9z M1660.6,1419.4c-6.4-6-6.7-16.1-0.7-22.5l33.3-35.5l144.8-154.2c7-7.5,6.7-19.2-0.8-26.3
		c-7.5-7-19.2-6.7-26.3,0.8L1666.1,1336c-6,6.4-16.1,6.7-22.5,0.7s-6.7-16.1-0.7-22.5l166.8-177.6c62.9,46.4,152.1,39.5,206.9-18.8
		c7-7.5,6.7-19.2-0.8-26.3c-7.5-7-19.2-6.7-26.3,0.8c-40.7,43.4-106.5,49.4-154.2,16.9l43.8-46.6c5.3-5.6,6.5-13.9,3.1-20.9
		c-3.4-6.9-10.7-11.1-18.4-10.3c-59.1,5.5-114,31.8-163,78c-3.1,2.9-7.1,4.5-11.4,4.3c-4.3-0.1-8.2-1.9-11.1-5s-4.5-7.1-4.3-11.4
		c0.1-4.3,1.9-8.2,5-11.1c87.8-82.8,194.5-107.6,308.8-71.8c6.8,2.1,14.2,0.2,19.1-5l33.5-35.6l91.3,85.7l-33.5,35.6
		c-4.1,4.3-5.8,10.3-4.7,16.2c7.2,38-4.1,76.2-31,104.9l-212.1,225.9c-6,6.4-16.1,6.7-22.5,0.7s-6.7-16.1-0.7-22.5l123-131
		c7-7.5,6.7-19.2-0.8-26.3c-7.5-7-19.2-6.7-26.3,0.8l-123,131l-33.3,35.5c-6,6.4-16.1,6.7-22.5,0.7s-6.7-16.1-0.7-22.5l133.3-142
		c7-7.5,6.7-19.2-0.8-26.3c-7.5-7-19.2-6.7-26.3,0.8l-133.3,142l-33.3,35.5C1677.1,1425.1,1667,1425.4,1660.6,1419.4z"/>
</g>
<circle fill="none" stroke="#4A83CA" stroke-width="40" stroke-miterlimit="10" cx="1484.5" cy="1463.9" r="1180.8"/>
</svg>
