<?xml version="1.0" encoding="utf-8"?>
<!-- Generator: Adobe Illustrator 18.1.0, SVG Export Plug-In . SVG Version: 6.00 Build 0)  -->
<svg version="1.1" id="Capa_1" xmlns="http://www.w3.org/2000/svg" xmlns:xlink="http://www.w3.org/1999/xlink" x="0px" y="0px"
	 viewBox="0 0 3000 3000" enable-background="new 0 0 3000 3000" xml:space="preserve">
<g>
	<g>
		<path fill="#4A83CA" d="M2417,1234.7c0-23.6-5.5-46.9-15.8-67.9c10.4-21,15.8-44.1,15.8-68.2c0-74.6-53.3-137.1-123.8-151.2
			c8.1-18.9,12.5-39.5,12.5-60.7c0-85.1-69.2-154.3-154.3-154.3c-23.2,0-45.8,5.2-66.4,15c-37.2-35.6-87-56-139.7-56
			c-13.5,0-26.9,1.3-40,4c-11.9-11.9-25.7-21.7-40.7-29.1c30.6-31,48.5-73.2,48.5-117.8c0-92.4-75.2-167.6-167.6-167.6
			c-40.5,0-78.6,14.2-108.6,39.9c-17.3-5.9-35.6-9-54.2-9c-32.9,0-64.4,9.5-91.2,26.9c-55.9-52.8-143.1-61.7-209.3-16.7
			c-56.6,38.5-83,107.6-69.9,172.4c-65.6,12.2-116.7,65.9-124.9,132.8c-18.9-5.5-40.3-8.4-64.2-6.3c-36.4,3.1-68.6,15.3-93.7,35
			c-15.4-5-31.5-7.6-47.8-7.6c-85.1,0-154.3,69.2-154.3,154.3c0,5.2,0.3,10.5,0.8,15.7c-21.8,27.2-33.9,61.2-33.9,96.5
			c0,25.5,6.2,49.7,17.3,71.2c-87.9,5.1-157.9,78.2-157.9,167.3c0,41.9,15.7,81.6,42.8,111.9c-42.8,52.6-64,120.3-58.4,188.3
			L777.2,3000h1375.3l238.6-1443l0.4-3.6c4.2-51.7-7-103.3-31.5-148.2c3.6-14,5.4-28.1,5.4-41.9c0-4.4-0.2-8.8-0.6-13.2
			C2397.6,1321.2,2417,1279.3,2417,1234.7z M851.7,2912.1L851.7,2912.1L625.6,1544.5c-3.5-49.1,12.9-96,46.3-132.2
			c33.8-36.7,79.9-56.8,129.7-56.8h1.8c95.2,0,172.6,74.5,176.3,169.6l0,0.9l0.4,5.3c0,3.6,0.1,7.2,0.2,10.8l108.8,1370H851.7
			L851.7,2912.1z M1177.3,2912.1l-109.3-1383.8c0.8-44.5,18.1-86.3,49.3-118.7c33.6-34.9,78.7-54.1,127.1-54.1
			c97.3,0,176.4,79.1,176.4,176.4v1380.2H1177.3z M1508.8,2912.1L1508.8,2912.1V1531.9c0-97.3,79.1-176.4,176.4-176.4
			c48.4,0,93.6,19.2,127.1,54.1c31.1,32.4,48.4,74.2,49.3,118.7l-109.3,1383.8H1508.8z M2304.1,1544.5l-226.1,1367.6h-237.4
			l108.7-1368.2l0.1-1.8c0.1-3.6,0.2-7.2,0.2-10.8l0.3-4.4l0.1-1.8c3.7-95.1,81.1-169.6,176.3-169.6h1.8
			c49.9,0,95.9,20.2,129.7,56.8C2291.2,1448.6,2307.6,1495.5,2304.1,1544.5z M2295.1,1292.6l-27,15.2c-41.6-26-90.2-40.2-140-40.2
			h-1.8c-92.3,0-173.4,46.7-220.7,118.3c-8.8-13.1-18.8-25.6-30-37.2c-50.3-52.3-117.9-81-190.5-81c-91.9,0-173,47.1-220.4,118.5
			c-47.4-71.4-128.5-118.5-220.4-118.5c-72.5,0-140.2,28.8-190.5,81c-11.2,11.6-21.2,24.1-30,37.2
			c-47.3-71.6-128.4-118.3-220.7-118.3h-1.8c-49.4,0-97.5,14-138.9,39.5c-13.3-14.5-21-33.7-21-53.9c0-43.9,35.8-79.7,79.7-79.7
			c14.7,0,29,4,41.4,11.6l33.8,20.6l24-31.5c5.3-6.9,11.7-13,19.1-18l75-50.8l-86.3-27.5c-27.6-8.8-46.1-34.2-46.1-63.2
			c0-19,8.2-37.1,22.4-49.7l20.6-18.2l-7.4-26.5c-1.6-5.7-2.4-11.7-2.4-17.8c0-36.6,29.8-66.4,66.4-66.4c12.2,0,24.2,3.3,34.5,9.6
			l33.9,20.7l24-31.6c14.5-19.1,38.8-24.9,56.6-26.4c39-3.3,67.5,19.8,84.4,33.6c5.3,4.3,9.8,8,14.8,11l34.2,20.7l23.6-31.7
			l21.5-28.3l-20.9-26.7c-9.2-11.8-14.1-25.9-14.1-40.9c0-36.4,29.4-66,65.7-66.4l24.8,1.4l14.1-18.4c4.1-5.3,8.7-10,13.6-13.9
			l27.7-21.9l-15.3-31.7c-17.1-35.3-5.4-78.5,27-100.6c36.4-24.7,86-15.2,110.7,21.1c1.5,2.2,2.9,4.6,4.3,7.3l31.4,60.1l42.1-53.1
			c15.3-19.3,38.1-30.4,62.6-30.4c14.7,0,29,4,41.4,11.6l33.8,20.6l24-31.5c15.3-20.1,38.4-31.6,63.5-31.6c44,0,79.7,35.8,79.7,79.7
			c0,28.8-15.6,55.4-40.7,69.5l-30.8,17.3l10.3,33.8c2.3,7.4,3.5,15.1,3.5,22.8c-0.1,1.2-0.1,2.4-0.1,3.6v38.5l38.1,5.1
			c19.3,2.6,36.5,13.6,47.1,30.1l19.2,30.1l33.4-12.6c12.8-4.8,26.3-7.3,40.2-7.3c38.2,0,73.7,18.9,94.9,50.7l28.5,42.5l37.7-34.6
			c12.4-11.3,28.3-17.6,45-17.6c36.6,0,66.4,29.8,66.4,66.4c0,23.9-13,46.1-34,57.9l-31.1,17.5l10.7,34c1,3.3,1.8,7,2.3,11l7.6,65.3
			l57.4-31.9c9.7-5.4,20.8-8.2,32-8.2c36.6,0,66.4,29.8,66.4,66.3c0,15-4.9,29.2-14.1,41l-21.3,27.2l21.4,27.1
			c9.2,11.7,14.1,25.8,14.1,40.9C2329.1,1258.6,2316.1,1280.8,2295.1,1292.6z"/>
	</g>
</g>
<g>
	<g>
		<path fill="#4A83CA" d="M1614.3,835c-13,0-25.7,1.9-37.9,5.7c-30.6-33.1-73.9-52.5-120.3-52.5c-78.5,0-144.2,55.4-160.3,129.1
			c-86.8,4.2-156.1,76.1-156.1,163.9h87.9c0-42,34.2-76.2,76.2-76.2c6.9,0,14,1,21,3l63.1,18l-7.3-65.2c-0.4-3.2-0.5-6-0.5-8.6
			c0-42,34.2-76.2,76.2-76.2c28.4,0,54.3,15.7,67.5,41l24.3,46.4l41.5-32c5.1-3.9,13.5-8.6,24.9-8.6c22.6,0,41,18.4,41,41h87.9
			C1743.2,892.8,1685.3,835,1614.3,835z"/>
	</g>
</g>
<g>
	<g>
		<path fill="#4A83CA" d="M1907.2,996.1c-43,0-83.5,18.5-112,49.3c-15.6-5.5-32.2-8.3-49.1-8.3c-82.4,0-149.4,67-149.4,149.4h87.9
			c0-33.9,27.6-61.5,61.5-61.5c13.3,0,26,4.3,36.8,12.4l43.1,32.4l23-48.7c10.6-22.5,33.5-37,58.2-37c35.5,0,64.5,28.9,64.5,64.5
			h87.9C2059.6,1064.4,1991.2,996.1,1907.2,996.1z"/>
	</g>
</g>
<g>
	<g>
		
			<rect x="741.3" y="1528.6" transform="matrix(-0.9866 0.1632 -0.1632 -0.9866 1837.6416 3252.0432)" fill="#4A83CA" width="87.9" height="345.8"/>
	</g>
</g>
<g>
	<g>
		
			<rect x="869.5" y="2368.7" transform="matrix(-0.9866 0.1631 -0.1631 -0.9866 2218.5452 4771.1484)" fill="#4A83CA" width="87.9" height="215.8"/>
	</g>
</g>
<g>
	<g>
		
			<rect x="1588.1" y="2552.9" transform="matrix(-7.919668e-02 0.9969 -0.9969 -7.919668e-02 4364.1924 1162.3752)" fill="#4A83CA" width="114.4" height="87.9"/>
	</g>
</g>
<g>
	<g>
		
			<rect x="1523" y="1983.2" transform="matrix(-7.919668e-02 0.9969 -0.9969 -7.919668e-02 3845.134 502.5075)" fill="#4A83CA" width="335.1" height="87.9"/>
	</g>
</g>
<g>
	<g>
		
			<rect x="1624.7" y="1584.4" transform="matrix(-7.919668e-02 0.9969 -0.9969 -7.919668e-02 3481.7109 40.5254)" fill="#4A83CA" width="194.9" height="87.9"/>
	</g>
</g>
</svg>
